PathFileType   4   (X/Y/Z)
DataRate	CameraRate	NumFrames	NumMarkers	Units	OrigDataRate	OrigDataStartFrame	OrigNumFrames
120.0	120.0	5	37	mm	120.0	72	114
Frame#	Time	midhip	hip_r	hip_l	knee_r	knee_l	ankle_r	ankle_l	midasis	asis_r	asis_l	psis_r	psis_l	epicondLat_r	epicondLat_l	epicondMed_r	epicondMed_l	malleolusLat_r	malleolusLat_l	malleolusMedv_r	malleolusMedv_l	neck	subclavicle_r	subclavicle_l	sternalnotch	xyphoidprocess	thighwand_r	thighwand_l	upperleg1_r	upperleg1_l	upperleg2_r	upperleg2_l	shankwand_r	shankwand_l	lowerleg1_r	lowerleg1_l	toe_r	toe_l
 	 	X1	Y1	Z1	X2	Y2	Z2	X3	Y3	Z3	X4	Y4	Z4	X5	Y5	Z5	X6	Y6	Z6	X7	Y7	Z7	X8	Y8	Z8	X9	Y9	Z9	X10	Y10	Z10	X11	Y11	Z11	X12	Y12	Z12	X13	Y13	Z13	X14	Y14	Z14	X15	Y15	Z15	X16	Y16	Z16	X17	Y17	Z17	X18	Y18	Z18	X19	Y19	Z19	X20	Y20	Z20	X21	Y21	Z21	X22	Y22	Z22	X23	Y23	Z23	X24	Y24	Z24	X25	Y25	Z25	X26	Y26	Z26	X27	Y27	Z27	X28	Y28	Z28	X29	Y29	Z29	X30	Y30	Z30	X31	Y31	Z31	X32	Y32	Z32	X33	Y33	Z33	X34	Y34	Z34	X35	Y35	Z35	X36	Y36	Z36	X37	Y37	Z37

	72	0.70833	788.251	765.332	-230.752	767.370	776.525	-152.724	769.897	760.414	-307.497	866.569	418.820	-184.346	834.587	387.606	-365.810	851.884	59.920	-197.456	531.527	194.188	-323.228	892.435	847.009	-236.265	890.423	859.840	-112.997	894.448	834.178	-359.533	645.901	908.674	-214.027	644.771	900.636	-267.484	874.610	414.779	-113.414	826.809	397.271	-436.226	849.320	418.867	-259.511	860.488	361.027	-274.379	841.942	58.969	-160.274	520.463	203.427	-360.004	864.038	65.988	-232.175	544.208	210.512	-284.216	673.806	1336.101	-241.500	807.162	1274.221	-209.882	803.641	1277.044	-294.347	788.465	1269.794	-263.832	843.662	1198.765	-267.261	986.778	592.192	-106.633	989.139	595.864	-358.633	943.163	605.489	-123.029	940.694	600.119	-360.879	936.009	529.635	-137.166	938.555	526.242	-364.203	941.412	200.308	-162.781	601.201	254.825	-438.964	896.509	204.539	-177.934	615.028	265.834	-394.086	955.609	44.232	-195.321	554.336	93.740	-330.061
	73	0.71667	798.256	766.593	-231.263	777.400	777.566	-153.122	780.154	761.995	-307.945	869.812	418.563	-184.185	857.252	390.209	-364.888	851.957	59.857	-197.713	557.480	191.776	-322.220	902.797	848.013	-236.195	900.593	860.472	-112.314	905.000	835.554	-360.076	656.641	910.265	-213.847	655.609	902.348	-267.112	877.545	414.414	-113.225	849.741	399.450	-435.389	850.659	420.929	-260.006	880.584	365.605	-272.235	842.086	58.946	-160.511	546.308	200.738	-359.032	864.584	65.661	-232.367	569.273	208.596	-283.081	685.273	1337.669	-240.973	821.018	1275.278	-210.527	814.883	1278.253	-293.943	799.974	1270.966	-263.586	855.819	1199.988	-268.762	993.263	589.534	-106.105	1005.416	602.238	-357.218	950.181	603.861	-122.136	957.687	605.374	-359.756	940.794	527.850	-137.032	956.705	531.394	-362.616	942.786	199.607	-163.048	626.440	253.446	-438.121	897.854	204.353	-178.576	639.958	265.196	-392.484	955.695	44.112	-195.223	584.793	93.305	-328.903
	74	0.72500	808.309	767.898	-231.769	787.497	778.523	-153.518	790.384	763.671	-308.410	873.128	418.322	-184.133	879.564	393.074	-363.717	851.924	59.819	-198.026	583.978	188.495	-321.203	913.159	849.048	-236.123	910.840	860.979	-111.702	915.479	837.118	-360.545	667.354	911.782	-213.641	666.422	904.082	-266.733	880.531	414.049	-113.146	872.365	401.876	-434.307	852.787	421.164	-258.417	901.763	369.841	-270.324	842.235	58.949	-160.776	572.667	197.184	-358.037	863.987	65.752	-232.839	595.241	206.064	-282.104	696.531	1338.985	-240.654	830.825	1276.097	-209.720	826.117	1279.701	-293.728	811.552	1272.087	-263.382	866.286	1201.070	-268.133	999.697	586.906	-105.589	1021.307	608.750	-355.608	956.684	602.350	-121.304	973.752	610.908	-358.709	945.744	526.318	-136.141	974.712	536.851	-361.021	944.191	198.956	-163.648	651.942	251.592	-437.163	898.702	204.023	-178.931	665.154	264.075	-391.506	955.819	43.979	-195.180	616.141	92.378	-327.705
	75	0.73333	818.479	769.218	-232.218	797.716	779.388	-153.872	800.654	765.395	-308.843	876.500	418.111	-184.202	901.512	396.136	-362.317	851.815	59.813	-198.391	611.019	184.403	-320.162	923.565	850.116	-236.017	921.198	861.390	-111.159	925.932	838.842	-360.875	678.046	913.170	-213.406	677.205	905.775	-266.356	883.558	413.688	-113.189	894.656	404.498	-432.994	855.057	421.673	-257.004	922.192	374.940	-266.497	842.387	58.985	-161.073	599.543	192.812	-357.010	863.028	66.156	-233.435	622.068	202.497	-281.193	707.933	1340.316	-240.275	842.667	1277.010	-209.776	837.775	1280.911	-293.762	822.832	1273.113	-263.387	877.934	1202.158	-268.531	1006.087	584.308	-105.095	1036.791	615.360	-353.822	962.678	601.160	-120.491	989.383	616.616	-357.228	950.552	525.268	-135.382	992.016	542.380	-358.669	945.607	198.337	-164.512	677.703	249.256	-436.092	899.764	203.868	-179.229	690.513	262.089	-390.853	955.989	43.833	-195.211	648.279	91.016	-326.544
	76	0.74167	828.813	770.510	-232.578	808.087	780.143	-154.158	811.016	767.108	-309.213	879.913	417.937	-184.398	923.076	399.337	-360.707	851.678	59.843	-198.802	638.619	179.557	-319.081	934.041	851.202	-235.856	931.677	861.724	-110.690	936.406	840.680	-361.021	688.720	914.380	-213.145	687.956	907.370	-265.987	886.608	413.334	-113.361	916.583	407.267	-431.468	858.129	422.236	-256.058	944.376	379.332	-262.244	842.551	59.058	-161.408	626.957	187.670	-355.938	862.699	66.137	-233.936	649.010	198.720	-280.182	719.186	1341.784	-240.076	854.555	1277.968	-209.367	849.495	1281.876	-293.948	833.966	1274.042	-263.443	889.599	1203.059	-268.455	1012.424	581.723	-104.621	1051.854	622.012	-351.878	969.061	600.104	-119.990	1004.290	622.006	-355.278	955.598	524.303	-134.773	1009.146	547.951	-356.015	947.017	197.732	-165.549	703.724	246.438	-434.912	901.108	203.658	-180.089	715.897	259.968	-390.099	956.210	43.677	-195.329	681.109	89.273	-325.477
